{
	"asset":{
		"generator":"Khronos glTF Blender I/O v4.0.44",
		"version":"2.0"
	},
	"scene":0,
	"scenes":[
		{
			"name":"Scene",
			"nodes":[
				0,
				1,
				2
			]
		}
	],
	"nodes":[
		{
			"mesh":0,
			"name":"Plane",
			"scale":[
				0.5683852434158325,
				0.5683852434158325,
				0.5683852434158325
			],
			"translation":[
				0.06760763376951218,
				-0.010693520307540894,
				0.11969970166683197
			]
		},
		{
			"mesh":1,
			"name":"sad",
			"rotation":[
				0.005264390725642443,
				0.7070872187614441,
				-0.005264424718916416,
				0.7070872187614441
			]
		},
		{
			"name":"sad.001",
			"rotation":[
				0.005264390725642443,
				0.7070872187614441,
				-0.005264424718916416,
				0.7070872187614441
			]
		}
	],
	"materials":[
		{
			"doubleSided":true,
			"name":"sad",
			"pbrMetallicRoughness":{
				"baseColorTexture":{
					"index":0
				},
				"metallicFactor":0,
				"roughnessFactor":0.5
			}
		}
	],
	"meshes":[
		{
			"name":"Plane",
			"primitives":[
				{
					"attributes":{
						"POSITION":0,
						"NORMAL":1,
						"TEXCOORD_0":2
					},
					"indices":3
				}
			]
		},
		{
			"name":"sad",
			"primitives":[
				{
					"attributes":{
						"POSITION":4,
						"NORMAL":5,
						"TEXCOORD_0":6
					},
					"indices":7,
					"material":0
				}
			]
		}
	],
	"textures":[
		{
			"sampler":0,
			"source":0
		}
	],
	"images":[
		{
			"mimeType":"image/jpeg",
			"name":"sad",
			"uri":"textures/sad.jpg"
		}
	],
	"accessors":[
		{
			"bufferView":0,
			"componentType":5126,
			"count":4,
			"max":[
				1,
				0,
				1
			],
			"min":[
				-1,
				0,
				-1
			],
			"type":"VEC3"
		},
		{
			"bufferView":1,
			"componentType":5126,
			"count":4,
			"type":"VEC3"
		},
		{
			"bufferView":2,
			"componentType":5126,
			"count":4,
			"type":"VEC2"
		},
		{
			"bufferView":3,
			"componentType":5123,
			"count":6,
			"type":"SCALAR"
		},
		{
			"bufferView":4,
			"componentType":5126,
			"count":7862,
			"max":[
				0.42200368642807007,
				0.03552185744047165,
				0.436801940202713
			],
			"min":[
				-0.5745216608047485,
				0,
				-0.3113621771335602
			],
			"type":"VEC3"
		},
		{
			"bufferView":5,
			"componentType":5126,
			"count":7862,
			"type":"VEC3"
		},
		{
			"bufferView":6,
			"componentType":5126,
			"count":7862,
			"type":"VEC2"
		},
		{
			"bufferView":7,
			"componentType":5123,
			"count":16350,
			"type":"SCALAR"
		}
	],
	"bufferViews":[
		{
			"buffer":0,
			"byteLength":48,
			"byteOffset":0,
			"target":34962
		},
		{
			"buffer":0,
			"byteLength":48,
			"byteOffset":48,
			"target":34962
		},
		{
			"buffer":0,
			"byteLength":32,
			"byteOffset":96,
			"target":34962
		},
		{
			"buffer":0,
			"byteLength":12,
			"byteOffset":128,
			"target":34963
		},
		{
			"buffer":0,
			"byteLength":94344,
			"byteOffset":140,
			"target":34962
		},
		{
			"buffer":0,
			"byteLength":94344,
			"byteOffset":94484,
			"target":34962
		},
		{
			"buffer":0,
			"byteLength":62896,
			"byteOffset":188828,
			"target":34962
		},
		{
			"buffer":0,
			"byteLength":32700,
			"byteOffset":251724,
			"target":34963
		}
	],
	"samplers":[
		{
			"magFilter":9729,
			"minFilter":9987,
			"wrapS":33071,
			"wrapT":33071
		}
	],
	"buffers":[
		{
			"byteLength":284424,
			"uri":"scene.bin"
		}
	]
}
